<svg xmlns="http://www.w3.org/2000/svg" viewBox="0 0 511.66 131.77"><defs><style>.cls-1{fill:#fff;}.cls-1,.cls-2,.cls-3{fill-rule:evenodd;}.cls-2{fill:#004097;}.cls-3{fill:#ef8200;}</style></defs><g id="图层_2" data-name="图层 2"><g id="图层_1-2" data-name="图层 1"><path class="cls-1" d="M94.7,37.07a40.75,40.75,0,1,1-57.63,0A40.83,40.83,0,0,1,94.7,37.07Z"/><path class="cls-2" d="M65.89,0A65.89,65.89,0,1,1,0,65.89,66,66,0,0,1,65.89,0ZM94.7,37.07a40.75,40.75,0,1,0,0,57.63A40.83,40.83,0,0,0,94.7,37.07Z"/><path class="cls-2" d="M56.94,54.39C70.83,40.5,87.33,34.33,93.66,40.67c3.44,3.44,3.19,9.9,0,17.31H90.59c4-7.33,5.08-13.56,2.19-16.44-5-5-20,1.87-33.41,15.28l-.22.23a10.57,10.57,0,0,0-3.4-1.44c.39-.41.79-.82,1.19-1.22ZM83.3,73.79c-1.06,1.21-2.19,2.41-3.37,3.59C66,91.28,49.55,97.44,43.21,91.11c-3.82-3.83-3.08-11.37,1.17-19.8a10.2,10.2,0,0,0,2,2.38c-4.05,7.38-5.15,13.65-2.25,16.54,5,5,20-1.87,33.41-15.28.39-.38.76-.77,1.14-1.16Z"/><path class="cls-3" d="M53.41,56.66a9.22,9.22,0,0,1,4.79,17.1L59.37,75a88.09,88.09,0,0,0,8.56,7.54c-.93.71-1.86,1.38-2.77,2a74.13,74.13,0,0,1-8.22-7.13c-.78-.78-1.53-1.56-2.26-2.36a8.93,8.93,0,0,1-1.27.09,9.22,9.22,0,0,1-8.3-13.24c-4.89-9-5.93-17.17-1.9-21.2,4.56-4.56,14.37-2.65,24.68,3.95-.92.6-1.85,1.23-2.78,1.91-9.25-6.2-17.55-8.46-21-5C41,44.59,42.41,51.38,47,59.26a9.17,9.17,0,0,1,6.4-2.6ZM71.76,85.24c9.24,6.2,17.55,8.46,21,5,2.89-2.88,1.81-9.11-2.19-16.44h3.07c3.19,7.41,3.44,13.87,0,17.32-4.56,4.55-14.37,2.64-24.69-4,.93-.6,1.86-1.23,2.79-1.91Zm-.05-38a74.13,74.13,0,0,1,8.22,7.13c1.18,1.18,2.31,2.38,3.37,3.59H78.64L77.5,56.82a88.09,88.09,0,0,0-8.56-7.54C69.87,48.57,70.79,47.9,71.71,47.26Z"/><path class="cls-2" d="M38.68,60h3.6v6.95a6,6,0,0,1-.32,2,4.27,4.27,0,0,1-1,1.6,4.06,4.06,0,0,1-1.45,1,7.21,7.21,0,0,1-2.52.39,15.74,15.74,0,0,1-1.85-.12,5,5,0,0,1-1.68-.47,4.48,4.48,0,0,1-1.24-1,3.83,3.83,0,0,1-.77-1.34,7.09,7.09,0,0,1-.33-2V60H34.7v7.11a2,2,0,0,0,.53,1.49,2,2,0,0,0,1.47.54,2,2,0,0,0,1.46-.53,2,2,0,0,0,.52-1.5Z"/><path class="cls-1" d="M56.46,67.91l2,.24a4.83,4.83,0,0,1-1.74,2.71,5.25,5.25,0,0,1-3.25,1,5.14,5.14,0,0,1-3.94-1.54A5.94,5.94,0,0,1,48.06,66a6.27,6.27,0,0,1,1.47-4.45A5,5,0,0,1,53.36,60a4.82,4.82,0,0,1,3.71,1.55,6.15,6.15,0,0,1,1.45,4.36c0,.11,0,.28,0,.51H50a4.35,4.35,0,0,0,1.06,2.86,3.13,3.13,0,0,0,2.37,1,3,3,0,0,0,1.81-.56,3.65,3.65,0,0,0,1.18-1.77ZM50.15,64.8h6.34a3.87,3.87,0,0,0-.73-2.15,3,3,0,0,0-2.38-1.11,3.07,3.07,0,0,0-2.23.89A3.54,3.54,0,0,0,50.15,64.8Z"/><path class="cls-2" d="M64.54,67.83l3.37-.21a2.52,2.52,0,0,0,.45,1.25,1.88,1.88,0,0,0,1.56.69,1.71,1.71,0,0,0,1.17-.35,1,1,0,0,0,.41-.83,1.08,1.08,0,0,0-.39-.8,4.6,4.6,0,0,0-1.81-.66A7.69,7.69,0,0,1,66,65.53a2.8,2.8,0,0,1-1-2.22,3,3,0,0,1,.51-1.67A3.44,3.44,0,0,1,67,60.41,7.22,7.22,0,0,1,69.84,60a5.83,5.83,0,0,1,3.36.81,3.56,3.56,0,0,1,1.37,2.61l-3.34.19a1.56,1.56,0,0,0-1.74-1.48,1.45,1.45,0,0,0-.93.26.81.81,0,0,0-.31.64.61.61,0,0,0,.26.49,2.69,2.69,0,0,0,1.19.43,14.66,14.66,0,0,1,3.32,1,3.58,3.58,0,0,1,1.47,1.27,3.28,3.28,0,0,1,.46,1.7,3.66,3.66,0,0,1-.61,2,3.8,3.8,0,0,1-1.71,1.42,6.9,6.9,0,0,1-2.76.48c-2,0-3.3-.38-4.05-1.13A4.39,4.39,0,0,1,64.54,67.83Z"/><polygon class="cls-2" points="76.37 59.96 87.51 59.96 87.51 62.89 83.77 62.89 83.77 71.82 80.1 71.82 80.1 62.89 76.37 62.89 76.37 59.96"/><path class="cls-2" d="M94.86,60a5.94,5.94,0,0,1,5.7,4.31h-3a3.14,3.14,0,1,0,0,3.23h3A5.93,5.93,0,1,1,94.86,60Z"/><path class="cls-1" d="M56.56,114.78l-4.12.51.9,1.16-4.63,6.82H51l5.54-8.49Zm4,5.15s-1.93-.52-2.19-1.55a2.68,2.68,0,0,1,1.8-3.47,3.05,3.05,0,0,1,3.86,2.7c.13,2.19-2.32,4.5-4.63,5.15s-3.09.51-3.73-.26a1.2,1.2,0,0,1,.12-1.29.64.64,0,0,1,.78-.13c.64,0,.13.39.25.9s1.81.13,2.58-.51a4.67,4.67,0,0,0,1.16-1.54Zm-.65-1.68a3.89,3.89,0,0,1,1.29-.64.6.6,0,0,1,.64.64c0,.26.26.26.39.13a1.3,1.3,0,0,0-.13-1.93,1.63,1.63,0,0,0-2.7.77.92.92,0,0,0,.51,1Zm9.4-3.09-2.71,3.74s2.19-.39,2.84.25a1.78,1.78,0,0,1,.38,2.06,1.55,1.55,0,0,1-1.67.9c-.65-.13-1.29-.51-1.16-1.15s.39.38.39.38a.56.56,0,0,0,.51-.38c.13-.52.39-1.16-.13-1.42s-1.54-.39-1.93.39-.64,2.57.52,3.21a4.12,4.12,0,0,0,4.37-.38,3.62,3.62,0,0,0,1.16-2.71A2.07,2.07,0,0,0,70.71,118a7,7,0,0,0-1.8-.25l1-1.29,2.19.13.51,1.29a7.4,7.4,0,0,1,1-1.68c.65-.38,1.55-.77,1.55-.77l-5.92-.26Zm9.52.39c1.16-1,4.12-.9,4.25.77,0,.77,0,1.42-1.16,1.55s-.9-.9-.9-.9h.51a1,1,0,0,0,.13-.78c-.13-.25-.64-.25-1.8,0a5.59,5.59,0,0,0-2.19,1.93,2.87,2.87,0,0,1,1.8.13c1.93.9,1.68,4.38-1.28,4.89-3.22.65-3.86-1.54-3.22-3.86s3.86-3.73,3.86-3.73Zm-2.19,4.25a.85.85,0,0,0-.26.9,1.14,1.14,0,0,0,.91,1.28c1.15.39,2.83-1,1.93-2.31-.39-.52-.78-.13-.78.26a1.68,1.68,0,0,1-.25.77s-.78-.13-.9-.65S76.63,119.8,76.63,119.8Z"/><path class="cls-1" d="M7,67s.9,1,1.42.91.9-.52,1.54-.26,1.29.77,1.16,1.16-.13.77-.64.77a6.18,6.18,0,0,1-1.55,0c-.38,0-.38.26-.38.26a18.88,18.88,0,0,0,3.6,1.41c1,.13.9-.38,1.42-.9s.38-1.16,1.28-1,2.83.13,3.35-.51a6.81,6.81,0,0,0,1.29-4c-.13-1.29-.39-1.8-1.16-1.68s-.9,2.06-.9,2.84-.39,1.8-1,1.8a1,1,0,0,1-.65-.13c-.38-.26-.25-.77-.38-1.42s.13-1.54-.39-1.67a7.91,7.91,0,0,1-2.44-1.16,3,3,0,0,1-1.16-1.67c-.39-.77-.52-1.29-.9-1.29a4.59,4.59,0,0,0-2.32,1,6.67,6.67,0,0,1-1.8.9A10.69,10.69,0,0,0,4.83,62c-.78,0-1.29-.26-2.19.25a4.07,4.07,0,0,0-1,.9,6.39,6.39,0,0,1,1.54,0A8.11,8.11,0,0,1,5.08,64.6,8.1,8.1,0,0,1,6.5,66.27,4.25,4.25,0,0,0,7,67Zm.26-3.73s-.13-.51.26-.64.38-.39.9-.52.77-.12,1.41.39,1.42,1.16,1.29,1.8-.38.52-1.16.39a12.32,12.32,0,0,1-2.18-.9l-.52-.52ZM12,66.14c.13,0,0-.12-.13-.12s-.13-.13-.13-.26-.12-.13.13-.26,0,0,.26-.13.13,0,.26.13a2.75,2.75,0,0,1-.39.64Zm1.16,0v-.25h.26c.13,0,.13,0,.25.13a.46.46,0,0,1-.12.25C13.19,66.4,13.32,66,13.19,66.14Z"/><path class="cls-1" d="M14.86,32.69A8.06,8.06,0,0,1,15.25,34a1,1,0,0,1,.13.39,7.17,7.17,0,0,0,1-.52c.38-.38.38-.38.51-.25a16.3,16.3,0,0,1,1.93,1.28c.77.39,1,.9,1.68,1.29a3.27,3.27,0,0,0,1.28.51l-1,2.32s-.13.9.13,1,.77.26,1.29,0a5.68,5.68,0,0,1,1.41-.13l2.19,1a.83.83,0,0,1,.39-.64,7.5,7.5,0,0,0,1.54-2.58,2.59,2.59,0,0,0-.26-2.44A9.7,9.7,0,0,0,25.54,34c-.51-.13-.77-.51-.64-.9a3.7,3.7,0,0,1,.39-1.28c.13-.26-.26-.65-.26-.65a1.54,1.54,0,0,1-.64.26,9,9,0,0,0-1.16.9,10,10,0,0,0-.77,1.29c-.26.38-.52,1-.78,1s-.9-.13-1.28-.52-1.29-1.54-1.68-1.93a6.68,6.68,0,0,0-1.54-1,2,2,0,0,0-1.54.52c-.39.13-.78,1-.78,1Zm7.85,5.66s.13-.77.26-1.29.39-.77.64-.9.26-.51.39-.39.51.13.77.26.52.39.65.64a1.64,1.64,0,0,1,.64,1c0,.52-.39.78-.77,1a6.63,6.63,0,0,1-1.42.26,1.09,1.09,0,0,1-.77-.26C22.84,38.73,22.71,38.35,22.71,38.35Z"/><path class="cls-1" d="M41,9.52a5.44,5.44,0,0,0,0,2.06A10.94,10.94,0,0,1,41.5,13a.88.88,0,0,1,0,.64,8.67,8.67,0,0,0-.77.9,5,5,0,0,0-1.29,1.8c-.13.78,0,1.42.39,1.29a1,1,0,0,0,.77-.77c.26-.39.77-.65.9-.39a10.25,10.25,0,0,1-.13,1.93,8.33,8.33,0,0,0,0,1.8,8.32,8.32,0,0,1,.52.9c.13.13.25.39.38.26a1.31,1.31,0,0,0,.39-.13,8.09,8.09,0,0,0,.39-.9c.12-.38.38-.64.38-.9s.39-.38.52-.51.51.38.64.64.39.9.39,1-.13.13-.26.26a.46.46,0,0,0-.13.38h-.26a2.24,2.24,0,0,1,.52.39c.25.13.64.38.9.13s.25-.26.25-.39.26-.38.13-.51a8.74,8.74,0,0,0-.77-1.68A4.83,4.83,0,0,0,44.85,18a8.1,8.1,0,0,1-.39-.9s.39-1.29.52-1.94a5.66,5.66,0,0,0,.12-1.28c0-.26.13-.65,0-.9a1.39,1.39,0,0,1-.12-.52.56.56,0,0,0-.26.52c-.13.38-.26,1.16-.39,1.54a1.84,1.84,0,0,1-.26.9.55.55,0,0,1-.64.13.53.53,0,0,1-.38-.13.61.61,0,0,1,0-.51c0-.26,0-.39-.13-.52a1.32,1.32,0,0,0-.52-.9c-.13,0-.26-.38-.26-.51s-.51-1.16-.38-1.42a6,6,0,0,1,.64-1.8,1.52,1.52,0,0,0,.13-1.29c-.13-1.16-.77-.9-1.16-.25A2.81,2.81,0,0,0,41,9.52Zm5.4-3.6a.4.4,0,0,1,.52-.26l1.15.39a1.33,1.33,0,0,1,.13.51c.13.26.65,1.29.9,1.68s.52.64.78,1a12.3,12.3,0,0,1,1.28,1.15,2.28,2.28,0,0,1,.52.9,1.08,1.08,0,0,1,0,.9,5.46,5.46,0,0,0-.26,1.42c0,.39.39.9.39,1A13.37,13.37,0,0,0,52.31,16v.25a1.88,1.88,0,0,0-.26.91,2.74,2.74,0,0,0,.26,1.41c0,.39.51,1.93.51,2.06s.26.64.13.64-.13-.13-.38-.25a5.45,5.45,0,0,1-1.16-1.55,17.14,17.14,0,0,1-1.16-2.19,4.54,4.54,0,0,0-.9-1.28c-.13-.39-1.29.38-1.54.38s-.65.52-1.16-.13,0-1,0-1.41.38-1.16.26-1.42-.65,0-.91-.38a3.12,3.12,0,0,1-.25-1.42c0-.26-.26-.77-.26-1s.13-.51.51-.64a5.72,5.72,0,0,1,1.29-.64l.26-.52L46.39,5.92Zm.64,5.4a.48.48,0,0,0,.13.52c.26.13.39.26.52.13.77-.26.38-1.16-.13-.9a.57.57,0,0,0-.52.25Zm.78,2.32s-.13.52.13.77.64,0,.77-.13a.57.57,0,0,0,.13-.64c0-.26,0-.26-.26-.39C48.06,13,47.94,13.25,47.81,13.64Z"/><path class="cls-1" d="M82.81,9.78a2,2,0,0,0-.9.77c-.39.52-.77,1.55-1,1.8a.57.57,0,0,1-.64,0c-.39-.13-1-.25-1,0s.25.26.38.65a2.56,2.56,0,0,1-.26,2.31c-.77.9-.9,1.29-1.41,1.55s-1,.13-1.29.26-.38-.13-.51.12-.26,1.29.25,1.68.65.13.91.13a2.81,2.81,0,0,0,.77-.13,1.9,1.9,0,0,0,.51.51c.26.26.39.26.65.13s.51-.9.64-1.29a5,5,0,0,0,.26-.9,6,6,0,0,1,.77-.64c.26-.26.13-.13.64-.39a2.86,2.86,0,0,0,.77-.51l-.25,1a.53.53,0,0,0,0,.77,8.34,8.34,0,0,1,1,1c.25.26.38.51.12.77A1.69,1.69,0,0,1,82,19.3a5.12,5.12,0,0,1-.52-.9,3.91,3.91,0,0,1-.13-1.16c.13-.25,0-.38,0-.38s-.51.26-.51.38a5.7,5.7,0,0,0-.64,1.29c-.26.52-.52,1.16-.39,1.42a6.18,6.18,0,0,0,1.8.9,4.64,4.64,0,0,0,1.8.25c.52,0,.77,0,.9.13s.39.13.39.26a5.8,5.8,0,0,0,.26,1c.13.51.51.64.9.9s1.8.52,2.31.64a2.94,2.94,0,0,0,1.42.13c.39,0,.9-.13.51-.38A6,6,0,0,1,89,23,12.83,12.83,0,0,1,87.31,21c-.38-.52-.77-1.16-.77-1.16a1.87,1.87,0,0,1,.26-.39c.26,0,.64-.9.77-1.54s.39-1.16.52-1.42a.94.94,0,0,0-.13-.64c0-.26-.13-.13-.39-.26s-.64.13-.9.13a.28.28,0,0,1-.26-.26v-.38a2.86,2.86,0,0,1,1-.39c.65-.13,1.29,0,1.67-.39A7.77,7.77,0,0,0,90,13a1.52,1.52,0,0,0,.12-.65A.42.42,0,0,0,90,12.1a.68.68,0,0,0-.39.12c-.13.26-.9.52-1,.65s-.51.38-.77.26-.39-.13-.52-.26a12,12,0,0,1,.39-1.29,3,3,0,0,0,.26-1c0-.51-.13-.64-.26-.77s-.39,0-.39,0-.25.39-.38.64a13.22,13.22,0,0,0-.52,1.29c-.13.26-.38,1.16-.51,1.42s-.39.12-.65.12-.64,0-1.15,0a3,3,0,0,0-1.42.52,3.32,3.32,0,0,1-1,.77s-.39,0-.39-.26.39-.64.78-.9a3.2,3.2,0,0,0,1.15-1.16,4.5,4.5,0,0,0,.52-1.15c0-.26,0-.39-.39-.9s-.51-.39-.51-.39Zm.64,4.5a.4.4,0,0,1,.26.13c.13.26.13,0,.26.26s.25.13.25.26.13.13.13.25a1.7,1.7,0,0,1-.38.65c-.13.13-.52,0-.52-.13s-.51-.13-.64-.13,0-.39.13-.51,0-.26.25-.39a1.87,1.87,0,0,0,.26-.39Zm1.8,3.22.52-.26c.38,0,.51-.12.51.13s-.13.52-.25.77-.39.52-.65.52S85,18.4,85,18.27s0-.38.13-.51A.47.47,0,0,1,85.25,17.5Z"/><path class="cls-1" d="M108.42,32.3s1.28,1.54,1.41,1.8a1.58,1.58,0,0,0,1.55.13c.51-.39,2.44-1.93,2.83-2.19a2.1,2.1,0,0,1,1.41-.64c.78,0,1.29.13,1.29.64a5.7,5.7,0,0,1-.26,1.68c-.13.25,0,.38-.13.51a6.29,6.29,0,0,1-1.54,1,7.9,7.9,0,0,0-1.54,1.16c-.26.25,0,.51.38.51a4.45,4.45,0,0,1,1.55.39,3.52,3.52,0,0,1,1.15,1.8c.26.52.13.9-.51.9a2.21,2.21,0,0,1-1.54-.77,6.16,6.16,0,0,0-1.42-1.16,6.93,6.93,0,0,0-1.29-.39c-.13,0-.25,0-.64.39a7,7,0,0,1-2.57,1,8.44,8.44,0,0,1-3.22-.9c-.77-.52-1.42-1.16-1.42-1.42s.52-.77.65-.9a2.78,2.78,0,0,1,1.15-.13c.65.13.91.26,1.16.13s.39.13.39-.13a2.44,2.44,0,0,0-.39-1.28,5.86,5.86,0,0,1-.64-1.55c0-.51.39-.77,1-.9a1.86,1.86,0,0,1,1.16.26Zm.51,7.34a1.72,1.72,0,0,0-.51.25c-.13,0-.13.26-.13.65s.13.77.13.77a1.19,1.19,0,0,1,0,.77v1.54c-.13.39.51.78.77,1s.39.65.64.39a4.16,4.16,0,0,0,1-1.67,3.72,3.72,0,0,0-.51-2.06A6.86,6.86,0,0,0,108.93,39.64Z"/><path class="cls-1" d="M125.15,63.06a11.47,11.47,0,0,1,2.06-.52c.38-.13,1.15-.64,1.15-1.16a1.25,1.25,0,0,0-.9-1,2.14,2.14,0,0,0-1.67.52c-.51.38-.39.77-.77,1s-.26.25-.26.51.39.65.39.65Zm3.08.77s-.77-.13-1-.13-.91.13-.91.51,0,.78.13.9.39.26.52.39.38,0,.38,0a1,1,0,0,0,.39-.39,4.43,4.43,0,0,0,.39-.9,1,1,0,0,0,.12-.38Zm1.93,4.37a10.55,10.55,0,0,1-1.15-.38c-.39,0-1.29-.65-1.8-.78a3.67,3.67,0,0,0-1-.38,1.89,1.89,0,0,0,.25.9,1,1,0,0,0,.39.39,13.3,13.3,0,0,0,.39,1.54c0,.13.38,1,.77,1.16a1.62,1.62,0,0,0,1.41-.65c.39-.51.52-.51.65-.9a3.59,3.59,0,0,0,.12-.9Zm-9.77-6.69a7.42,7.42,0,0,0-.91-.38c-.38-.13-.51-.65-.51-1s.39-.78,1-.78a7.5,7.5,0,0,1,1.8.26c.52,0,.9.52,1.16,1s.9,2.32,1.16,3a7.76,7.76,0,0,1,.51,2.57,1.77,1.77,0,0,1-.26,1.55,3,3,0,0,1-.77,1,1.12,1.12,0,0,1-1.16-.52c-.25-.38-.9-.38-1.28-.51s-.9.26-1.16,0a10.09,10.09,0,0,0-1.16-.52,1.87,1.87,0,0,0-1.29.13c-.12.13,0,.52.26.77a1,1,0,0,1,.52.91c.12.38.12.38-.13.64a8.11,8.11,0,0,1-.9,1.16c-.26.38-.39.25-.52,0s-.38-.78-.51-1.16a1.9,1.9,0,0,0-.26-1.16,1.13,1.13,0,0,0-1.16-.51,4,4,0,0,1-1.67-.26c-.52-.26-.39-.65-.64-1.55a5.44,5.44,0,0,1-.13-1.93c.13-.38.9-.64,1.41-.9s.65-.77.9-.9.77-1.16,1.29-1.28a.87.87,0,0,1,.77.25,3.6,3.6,0,0,0-.13,1.42,3.23,3.23,0,0,0,.26,1.67,14,14,0,0,0,1.42,1.29,2.3,2.3,0,0,0,1.67.38.41.41,0,0,0,.13-.77l-.77-.77-1-.51c-.26,0-.26-.39-.13-.52s.64-.39,1.16-.39a2.09,2.09,0,0,1,1.41.91c.52.38,1.16,1.8,1.42,2a.31.31,0,0,0,.51-.12,2,2,0,0,0-.38-1.29,4.74,4.74,0,0,1-.65-1c-.26-.52-.51-.39-.9-1a8.53,8.53,0,0,1-.38-1.16ZM115,64a.79.79,0,0,0-.51.25c-.26.13-.26.52-.26.78s0,.51.26.9.38.25.51.25.51.13.64-.25.26-.78-.13-1A3.76,3.76,0,0,1,115,64Z"/><path class="cls-2" d="M224.11,37.31s-2.55,2.54-3.32,3.21a5.36,5.36,0,0,1-1.11.89A18.48,18.48,0,0,0,222.89,44c1.66,1,1.77.89,1.77,1.66S224,50.93,223.45,54s-1.33,4.77-1.89,7.21a13.64,13.64,0,0,0,.44,5.42h-9.3s-3.21,1-3.44,2,.78,3,2.11,4.32a12.2,12.2,0,0,1,2.55,4.65c.11,1,.33,8.75.33,8.75a3.26,3.26,0,0,1,2.66.45c1.44.88,6.76,1.55,10.63,1.11s6.87-2.55,7.65-4.66a34.28,34.28,0,0,0,1.33-8.64c0-2,.77-3.43,2.1-3.65a37.9,37.9,0,0,1,4.77-.56c1.1,0,1.77-1.66,1.77-1.66A8.73,8.73,0,0,0,243.28,67a17,17,0,0,0-4.66-2.44,20.12,20.12,0,0,0-5.43-.78c-1.77,0-4,0-4.76-.88s-1.11-3.33-.33-5.1S231.2,51,232,49.16a14.8,14.8,0,0,0,.88-6.65c-.22-2.21-2.55-3.43-3.65-4.43s-5.1-.77-5.1-.77Zm-6.2,34.89c0,.11,2.77-1,4.54-1a11.91,11.91,0,0,1,3.88.33c.88.22,2,.22,2,1.11a11.57,11.57,0,0,1,.11,2.88,9,9,0,0,1-.78,3.1,6.6,6.6,0,0,1-2.76,3.54c-1.67.78-3,.12-4.33-1.1a17.79,17.79,0,0,1-3.1-4.1,5.79,5.79,0,0,1-.55-3.1A2.31,2.31,0,0,1,217.91,72.2Z"/><path class="cls-2" d="M276.18,38.57c-1.33,2.43-2.66,5.76-2.66,8a48.7,48.7,0,0,1-.22,6,5.65,5.65,0,0,1-.89,2.32S270,56.18,268.2,57s-5.65,3-7.31,5.43-2.33,5.42-.45,5.31a6,6,0,0,0,4.1-1.77c1.44-1.11,3.66-1.22,3.88-.22s-2.77,5.76-3.32,7.31-2.33,5-2.44,6.54.55,3.88.55,4.43a1.68,1.68,0,0,0,1.11,1.55,6.5,6.5,0,0,0,1.78-.11s1.32-1.66,2.43-2.77,2.44-2.1,3.22-2.88a4.34,4.34,0,0,1,2.65-1.11c.67,0,1.22,2.11,1.22,2.88s.11,4.54,0,5-.55.33-1.11.66-1,.78-1.32.78a2.45,2.45,0,0,0-.67-.11,4.76,4.76,0,0,0,1.33,2c1,1,1.77,2.33,3.1,2.22s1.11-.67,1.66-1.11,1.33-1.44,1.33-2-.33-5.88-.55-7.43-.22-3.21-.44-5.2a23.22,23.22,0,0,1-.11-3.77s3.32-4.32,4.76-6.76a20.23,20.23,0,0,0,2.1-4.65C286,60,287,59,287,57.62a7.87,7.87,0,0,1,.34-2.32,4.25,4.25,0,0,0-2,1.77c-.77,1.33-2.44,4.21-3.21,5.32s-1.88,2.88-2.55,3.21a3.4,3.4,0,0,1-2.66-.44,1.47,1.47,0,0,1-.88-1.22,2,2,0,0,1,.22-1.89,3,3,0,0,0,.66-2.32c0-.78-.11-3.33-.66-3.88s-.56-1.66-.56-2.33-.11-5,.34-6a39,39,0,0,1,5.2-6.09,8.51,8.51,0,0,0,2.55-4.55c1.11-4.54-1.88-4.87-4.21-2.88a16.21,16.21,0,0,0-3.43,4.55Zm25.92-6.32.33,12.85-1.77,1.33a55.5,55.5,0,0,0-5.87.56c-1.33.33-2.33.33-2.77,1.77s0,3.43-.44,4.43-1.56,4-1.11,5.65,3,1.44,3,2.66-2.33,4.1-3.1,5.43-2.66,1.55-1.89,5,3.22,2.44,4.1,2.55,6.32-1,6.65.45,1.66,4.54,1.44,6.64a38.84,38.84,0,0,0,1,9.64,37.94,37.94,0,0,0,2.21,7.2c.78,1.22.56,1.77,1.11,1.77s.78-1.77.78-2.32.44-7.31.66-9a18.13,18.13,0,0,1,1.11-5.65,20.29,20.29,0,0,1,2.1-2.88,5.29,5.29,0,0,1,.67-.88s-.33-5.43-.22-6-.56-2.77,0-4.43a21.24,21.24,0,0,1,3-4.76,4.92,4.92,0,0,0,1.44-3.55,9,9,0,0,0-.55-3.87c-.78-2.11-2.55-4.66-3.33-6.54A35.11,35.11,0,0,1,309,45.1a65.9,65.9,0,0,1-.66-7.42V35.24a36.4,36.4,0,0,1-3.88-2.77,2,2,0,0,0-2.33-.22Zm-5.21,21.94a2.38,2.38,0,0,1,2.11-.67c2.33.22,2.55,3.77-.67,4-.88.11-1.21-.33-1.77-1.33a1.79,1.79,0,0,1,.33-2Zm-.55,9.75c1-1.22,2.22-2.22,3.77-.34.77,1,.55.89.33,1.89s-.78,2.1-1.55,2.21-2.77,1-3.21-.55A3.78,3.78,0,0,1,296.34,63.94Z"/><path class="cls-2" d="M346.18,36.47a7.76,7.76,0,0,0-2.66,3.88c-.67,2.43-1.11,7.09-1.55,8.3s-1.44,1.22-2.88,1-4.1,0-3.88,1.11,1.44,1,2.33,2.44,3.21,5.09,1.66,9.52-2,6.21-3.77,7.76-3.54,1.77-4.76,2.44-1.89.11-1.89,1.22.56,5.54,3,6.53,2.65-.22,4.09-.88,2.55-1.22,2.55-1.22,1.77,1,2.88,1.44a2,2,0,0,0,2.55-.45c.78-.77,1-4.43,1-5.76V69.59s1.33-1.88,2.1-3.1.78-1,2.33-2.55a16.65,16.65,0,0,0,2.44-3.1l.11,4.65s-1.22,2.11.88,2.89a42.41,42.41,0,0,1,5.43,3.21c1.22.66,2.33,1.44,1.55,2.43s-3.87,1.56-4.87,1a33,33,0,0,1-3.1-2.88,8.08,8.08,0,0,1-1.78-4.43c-.11-1.22-.66-1.22-.66-1.22a5,5,0,0,0-1.66,2.22c-.11,1-1,3.43-1,5.76s-.66,4.87.44,5.76,6,1.55,8.31,1.55a26.15,26.15,0,0,0,7.54-1.11,7.46,7.46,0,0,1,3.65-.77c1,0,1.33,0,1.66.88s1.11,1.78,2.44,3.55a5.36,5.36,0,0,0,4.21,2.44,85.41,85.41,0,0,0,10.53-.11,19.13,19.13,0,0,0,5.87-1.22c1.44-.56,3.21-1.78,1-2.22a49.06,49.06,0,0,1-5-1.55c-2.66-1-7.09-4.54-9.42-6.09a19.68,19.68,0,0,1-4.21-3.77A2.71,2.71,0,0,1,374.1,70c.66-.67,1.22-4.32,1.22-7.09s.22-5.1.11-6.21a5.3,5.3,0,0,0-1.11-2.88c-.67-.55-1.11-.22-1.77-.22a26,26,0,0,0-3.44,1.22,1.43,1.43,0,0,1-1.77-.55,1.91,1.91,0,0,1-.11-1.56c.22-.55,1.55-1.44,3.65-2.65s5-1.33,6-3.33a19.06,19.06,0,0,0,1.88-6.09,22.59,22.59,0,0,0-.11-3.21c0-.56-.89-.56-.89-.56A2.43,2.43,0,0,0,376.42,38c-.44.77-2.66,3-3.32,3.77a3.84,3.84,0,0,1-2.77,1.77c-1,0-1.77.22-2.11-.33s-.33-4.21-.33-5.65a16.48,16.48,0,0,0-.33-4.55c-.55-1.66-1-2.43-1.55-2.66s-1.55.67-1.55.67-.67,1.77-1,3a41.14,41.14,0,0,0-.33,5.43c0,1.55-.33,5.43-.33,6.2s-1.44,1.22-2.33,1.67-2.88.66-4.88,1.55-4,1.88-4.76,3.54a30.74,30.74,0,0,1-3,4.43s-2,.45-2.11-.55a7.5,7.5,0,0,1,1.78-4.76,13.38,13.38,0,0,0,3.32-5.77,16.34,16.34,0,0,0,.67-5.2c-.12-1.44-.34-1.89-2.44-3.44s-2.88-.66-2.88-.66Zm8,17a1.77,1.77,0,0,1,1.67.33c.66.67.22-.11.88.56s1.22.33,1.66.55.67.33.67,1.11-.22,2.54-.78,3.1a2.48,2.48,0,0,1-2.32.22c-.45-.44-2.11-.11-2.55-.11s-.44-1.44-.22-2.22,0-1.1.55-1.77a4.09,4.09,0,0,0,.44-1.77Zm11.42,10.52a20.3,20.3,0,0,1,1.88-1.33c1.11-.88,2-1.1,2-.11s-.11,2.11-.11,3.11-1.11,2.77-2,2.77a2.49,2.49,0,0,1-2.11-.78,2.75,2.75,0,0,1-.22-2.44A6.8,6.8,0,0,1,365.57,63.94Z"/><path class="cls-2" d="M411.83,59.73s7.09.22,8.2.22,3.32-1.77,3.54-3.88.11-10.86.22-12.52-.33-3.32,1.33-5.32,3.44-3.1,4.66-2.21A26.68,26.68,0,0,1,434,40.78c.44.67.88.45,1,1.11a58.41,58.41,0,0,1-.44,6.65,38.19,38.19,0,0,0-.33,6.76c.11,1.1,1.11,1.1,2.1.33s1.78-2.66,4.55-3.33a13.15,13.15,0,0,1,7.64.56c1.77.55,2.44,1.88.89,3.54a7.29,7.29,0,0,1-5.21,2.22,21.88,21.88,0,0,0-6.2,1.44,13.6,13.6,0,0,0-4,2.44c-.45.55-.67.77-.67,2.77a17.45,17.45,0,0,1-2.66,9.08c-2.1,3.1-6.75,6-9.64,7s-6.09,1.22-6.86.67-1.11-3.11-1-3.88,1.11-1.77,2.44-3.21,2.43-2.11,2.77-2.77,1-1.11.33-1.67a6.79,6.79,0,0,0-4.21-1.55,11.05,11.05,0,0,1-5.43-1.66c-1.44-1-1.44-2.88-.55-4.65a7.82,7.82,0,0,1,3.32-2.88Zm21.27,15a5,5,0,0,0-.66,1.67,3.26,3.26,0,0,0,1.21,2.1,10.81,10.81,0,0,0,3,1.33,11.34,11.34,0,0,1,1.77,1.55c1.11,1.11,3,2.66,4.1,3.66s3.21.33,4.65.33,2.55.22,2.55-1a16.07,16.07,0,0,0-2.66-6.65c-1.22-1.66-4.32-2.76-6.54-3.21S433.1,74.68,433.1,74.68Z"/><path class="cls-2" d="M481.25,48.44s-.89-6.09-1.22-8-1.89-4.88-3.88-5a4.07,4.07,0,0,0-4.1,2.88c-.44,1.66.11,4.43,1.22,6.65s2.88,2,3.55,3.32,1,1.22,2,1.22a4.9,4.9,0,0,0,2.44-1.11Zm4.21-11.3s-.67,2.88-.89,3.66.44,3.43,1.66,3.65,2.88.34,3.66-.11,1-1.44,1.44-1.77.55-1.22.55-1.22a5.37,5.37,0,0,0-1.66-2.1A29.15,29.15,0,0,0,487,37.59a1.8,1.8,0,0,0-1.55-.45Zm17.83-5.87s-1.44,3.55-1.88,4.76-3.21,4.33-4.1,6.1-1.55,4.1-1.55,4.1a9.15,9.15,0,0,0,3.21-.56,6.8,6.8,0,0,0,2.11-1.55s4.54-.55,5.54-.55,4.54-1.11,4.87-2.88a5.51,5.51,0,0,0-1.66-5.54c-2-1.88-1.77-2-3.21-2.77a17.25,17.25,0,0,0-3.33-1.11Zm-29.8,34.46a10.09,10.09,0,0,0,4.43-.78c2.55-1.11,2.33-2.22,4.32-2.88s2-1,4.43-2.11,3.66-1.21,4.66-.66,1.11,1.22.33,1.88-6.54,2.77-8.42,4.21-3.32,2.88-3.66,5.1-.22,4.1.45,4.76,2.21.89,2.43-.11a13.25,13.25,0,0,1,2.44-3.87,32.71,32.71,0,0,1,2.88-2.66c1.11-.89,3.11-1.33,3.22,1.1a9.26,9.26,0,0,1-2.44,6A39.37,39.37,0,0,1,483,80.79c-1.33.78-4,.11-6.2.11a21.38,21.38,0,0,1-5.54-1.1,3,3,0,0,0-1.44,3c.44,2,3.87,4.21,4.43,5.32s2.43,1.77,3.1,3.87,1.44,5,2.66,5.54,4.32.44,7.64.33,5.1.45,6.21-1.66a21.18,21.18,0,0,0,1.66-6.09c.11-1.66.55-3.44,2.21-4.21a10.73,10.73,0,0,1,4.88-.78,12.68,12.68,0,0,0,4.65-1c1-.45,1.44-1,0-2.44s-2.55-2.44-3.77-3.66-.88-1.22-2.54-1.1a6.47,6.47,0,0,0-3.77,1.55c-1.11.88-2.33,1.66-2.88.88s-.67-3,.11-4.76a20.67,20.67,0,0,1,2.55-4.1c.77-1.11.22-3.32.44-4.88s1.11-4,2.66-4.43,2.55-3.1,2.11-4.32a8.57,8.57,0,0,0-3.55-3.65c-1.44-.89-2.33-1.66-5.87-1.66a52.59,52.59,0,0,0-10,1c-2.55.67-9.42,2.44-11.64,3.22s-4.09,2.1-4.54,4A38.21,38.21,0,0,0,465,66.5c-.33,2.33,1.33,4.43,2.55,4.43s3.32-.33,3.88-1.66a31.06,31.06,0,0,1,2.1-3.54Zm7,21.82A6.47,6.47,0,0,0,483.79,86a3.18,3.18,0,0,1,4.1,0,2.46,2.46,0,0,1,1,2.66c-.22.77,0,1-1.44,1.77a5.27,5.27,0,0,1-3.32.67c-1.22,0-2.55,0-3.33-1.22A2.73,2.73,0,0,1,480.47,87.55Z"/><path class="cls-2" d="M165.84,53.67s-2,4.21-1,5.65,2.88,2.33,2.43,4.77-.55,5.32-2.21,5.54-2.55.11-3.32-1.11-1.44-4-2-5.32-1.11-.77-1.11-.77-1,10-.22,13.62,2.66,2.44,5,3.66,4.21-.56,4.87,2.66,3.22,9.41,6,10.63,11,1.22,14.85-.88,5.32-3.66,4-6.1-7.76-.44-10.42.56-6.64,1.22-7.53-1a3.75,3.75,0,0,1-.22-2.44c.55-1.33,2.33-1.88,4.1-2.66,2.55-1.1,5.21-1.88,5.21-3.54s-.34-6.2.77-9.53,1.44-4.21,3.88-6.31,3.54-3.11,3.1-4.21a16.09,16.09,0,0,0-6.09-6.76,28,28,0,0,1-5.76-4.77,17.48,17.48,0,0,0-.56-5.53c-.77-2.66-.55-4.66-3.32-6.76a11.24,11.24,0,0,0-4.43-2.22s1.88,3.77,1.88,5.1a27.56,27.56,0,0,1-2.1,8.09,35.06,35.06,0,0,1-4,7,21.62,21.62,0,0,0-1.78,2.66Zm12.75-4.21a2.25,2.25,0,0,1,2.65.23c1.33,1.1,1.67.77,2.66,2.43s1.33,2.22.67,4.88-2.33,6.31-4.66,6.64-2.1-.66-2.43-3.21-.34-7.42.11-8.53,1-2.44,1-2.44Zm-3.22,19.61c0,.11.22-.22.34-.55a2.37,2.37,0,0,1,.55-.78c.33-.11.44-.66,1-.11s-.12.22.66.78.33.66,0,.77a8.87,8.87,0,0,1-2.55-.11ZM177,72.73l.78-.11.22.66a1.12,1.12,0,0,1-.11,1c-.22.22-1.11-.22-1.11-.22C175.82,73.39,177.26,73.28,177,72.73Z"/></g></g></svg>