<svg id="图层_1" data-name="图层 1" xmlns="http://www.w3.org/2000/svg" viewBox="0 0 636.54 636.54"><defs><style>.cls-1{fill:#004097;}.cls-1,.cls-2,.cls-3{fill-rule:evenodd;}.cls-2{fill:#fff;}.cls-3{fill:#ef8200;}</style></defs><path class="cls-1" d="M669.7,49.46C845,49.46,988,192.43,988,367.73S845,686,669.7,686,351.43,543,351.43,367.73,494.4,49.46,669.7,49.46ZM808.89,228.54c-76.67-76.67-201.72-76.67-278.38,0s-76.67,201.72,0,278.38,201.71,76.67,278.38,0S885.56,305.2,808.89,228.54Z" transform="translate(-351.43 -49.46)"/><path class="cls-2" d="M624.63,603.9l-19.89,2.49,4.35,5.6-22.38,32.94H597.9l26.73-41Zm19.27,24.87s-9.32-2.49-10.57-7.46c-1.86-5,0-14.92,8.71-16.78s18,3.1,18.64,13.05c.63,10.57-11.19,21.76-22.37,24.87-10.57,3.73-14.92,2.48-18-1.25-1.24-1.86-.62-4.35.62-6.21a2.93,2.93,0,0,1,3.73-.63c3.11,0,.62,1.87,1.24,4.36.63,3.1,8.71.62,12.44-2.49a22.4,22.4,0,0,0,5.59-7.46Zm-3.11-8.08s4.35-3.11,6.22-3.11a2.94,2.94,0,0,1,3.11,3.11c0,1.24,1.24,1.24,1.86.62,1.87-1.24,3.11-6.84-.62-9.32-4.35-3.73-11.81-2.49-13.05,3.73-.63,4.35,3.1,5,2.48,5Zm45.38-14.92-13,18s10.56-1.87,13.67,1.24,3.11,6.22,1.87,10a7.54,7.54,0,0,1-8.08,4.35c-3.11-.62-6.22-2.49-5.6-5.6.62-2.48,1.87,1.87,1.87,1.87a2.71,2.71,0,0,0,2.48-1.87c.62-2.48,1.87-5.59-.62-6.84-2.49-.62-7.46-1.86-9.32,1.87-2.49,3.73-3.11,12.43,2.48,15.54,5.6,3.73,16.79,2.49,21.14-1.86a17.46,17.46,0,0,0,5.59-13.06c0-4.35-1.86-8.7-5.59-9.94a32.62,32.62,0,0,0-8.7-1.25l5-6.21,10.57.62,2.48,6.21s2.49-5.59,5-8.08a75.25,75.25,0,0,1,7.45-3.73l-28.59-1.24Zm46,1.86c5.6-5,19.89-4.35,20.51,3.73,0,3.73,0,6.84-5.59,7.46s-4.35-4.35-4.35-4.35h2.48a4.77,4.77,0,0,0,.63-3.73c-.63-1.24-3.11-1.24-8.71,0-5.59,1.87-10.56,9.33-10.56,9.33s3.1-1.25,8.7.62c9.32,4.35,8.08,21.13-6.22,23.62-15.54,3.11-18.65-7.46-15.54-18.65,3.73-11.19,18.65-18,18.65-18ZM721.6,628.15s-1.86,1.24-1.24,4.35c0,3.73,1.24,5,4.35,6.22,5.6,1.86,13.68-5,9.33-11.19-1.87-2.49-3.73-.63-3.73,1.24a7.88,7.88,0,0,1-1.25,3.73s-3.73-.62-4.35-3.11C724.71,626.9,721.6,628.15,721.6,628.15Z" transform="translate(-351.43 -49.46)"/><path class="cls-2" d="M385.31,373.32s4.35,5,6.83,4.36,4.36-2.49,7.46-1.25c2.49,1.87,6.22,3.73,5.6,5.6-.62,2.48-.62,3.73-3.11,3.73-1.86.62-5.59,0-7.46,0s-1.86,1.24-1.86,1.24,12.43,6.22,17.4,6.84,4.35-1.87,6.84-4.35c3.11-2.49,1.86-5.6,6.22-5s13.67.63,16.16-2.48c3.11-3.11,6.84-13.68,6.21-19.27-.62-6.22-1.86-8.71-5.59-8.08s-4.35,9.94-4.35,13.67-1.87,8.7-5,8.7c-1.24,0-2.48,0-3.1-.62-1.87-1.24-1.25-3.73-1.87-6.84,0-3.72.62-7.45-1.86-8.08-1.87-.62-8.08-2.48-11.81-5.59-3.11-3.11-4.35-3.73-5.6-8.08-1.86-3.73-2.48-6.22-4.35-6.22a22.18,22.18,0,0,0-11.19,5,31.89,31.89,0,0,1-8.7,4.36,55.89,55.89,0,0,0-7.46-1.87c-3.73,0-6.22-1.24-10.57,1.24a18.66,18.66,0,0,0-5,4.36s5.59-.63,7.46,0,6.84,4.35,9.32,6.83,5.6,5.6,6.84,8.08a24.81,24.81,0,0,0,2.49,3.73Zm1.24-18s-.62-2.49,1.24-3.11c2.49-1.24,1.87-1.87,4.35-2.49,3.11-.62,3.73-.62,6.84,1.87,3.11,1.86,6.84,5.59,6.22,8.7-1.24,3.11-1.87,2.49-5.6,1.87-3.1-1.25-9.32-3.11-10.56-4.36l-2.49-2.48Zm23,13.67c.62,0,0-.62-.62-.62,0-.62-.62-.62-.62-1.24s-.62-.62.62-1.24c.62-.63,0,0,1.24-.63s.62,0,1.25.63c0,.62-1.87,3.1-1.87,3.1Zm5.59,0v-1.24h1.25c.62,0,.62,0,1.24.62a2.16,2.16,0,0,1-.62,1.24C415.14,370.22,415.77,368.35,415.14,369Z" transform="translate(-351.43 -49.46)"/><path class="cls-2" d="M423.23,207.35s1.86,5,1.86,6.22a4.8,4.8,0,0,1,.62,1.86,33.61,33.61,0,0,0,5-2.48c1.87-1.87,1.87-1.87,2.49-1.25a78.48,78.48,0,0,1,9.33,6.22c3.73,1.86,5,4.35,8.08,6.22a16.57,16.57,0,0,0,6.21,2.48l-5,11.19s-.62,4.35.62,5c.62,1.25,3.73,1.25,6.22,0,1.86-.62,5.59-.62,6.84-.62,1.24.62,10.56,5,10.56,5a4,4,0,0,1,1.87-3.11c1.86-1.25,5.59-7.46,7.46-12.43a12.7,12.7,0,0,0-1.25-11.82,48.47,48.47,0,0,0-9.32-6.21c-2.49-.62-3.73-2.49-3.11-4.35a18.24,18.24,0,0,1,1.87-6.22c.62-1.24-1.25-3.11-1.25-3.11a7.46,7.46,0,0,1-3.1,1.25,42.46,42.46,0,0,0-5.6,4.35c-1.24,1.24-2.49,4.35-3.73,6.21s-2.49,5-3.73,5c-1.24.62-4.35-.63-6.21-2.49s-6.22-7.46-8.09-9.32a31.14,31.14,0,0,0-7.46-5c-3.1-.62-5.59,1.25-7.45,2.49-1.87.62-3.73,5-3.73,5Zm37.91,27.35s.63-3.73,1.25-6.21c1.24-1.87,1.86-3.73,3.11-4.35.62-.63,1.24-2.49,1.86-1.87,1.24.62,2.49.62,3.73,1.24,1.24,1.25,2.49,1.87,3.11,3.11,1.24.62,2.49,2.49,3.11,5,0,2.48-1.87,3.72-3.73,5a32.26,32.26,0,0,1-6.84,1.24,5.25,5.25,0,0,1-3.73-1.24C461.77,236.57,461.14,234.7,461.14,234.7Z" transform="translate(-351.43 -49.46)"/><path class="cls-2" d="M549.42,95.46a26.2,26.2,0,0,0,0,10,47.17,47.17,0,0,1,2.48,6.83,4.32,4.32,0,0,1,0,3.11,38.31,38.31,0,0,0-3.73,4.35c-1.86,1.25-5,5.6-6.21,8.71-.63,3.73,0,6.83,1.86,6.21,2.49-.62,3.11-1.86,3.73-3.73,1.24-1.86,3.73-3.11,4.35-1.86s-.62,7.46-.62,9.32-.62,6.84,0,8.7c.62,1.25,2.49,3.73,2.49,4.36.62.62,1.24,1.86,1.86,1.24a6.34,6.34,0,0,0,1.87-.62,41.88,41.88,0,0,0,1.86-4.35c.62-1.87,1.87-3.11,1.87-4.36.62-1.24,1.86-1.86,2.48-2.48,1.25,0,2.49,1.86,3.11,3.11,0,.62,1.87,4.35,1.87,5s-.63.62-1.25,1.24a2.3,2.3,0,0,0-.62,1.87h-1.24a10.7,10.7,0,0,1,2.48,1.86c1.25.62,3.11,1.87,4.35.62,1.87-.62,1.25-1.24,1.25-1.86.62-.62,1.24-1.87.62-2.49a43.12,43.12,0,0,0-3.73-8.08,21.78,21.78,0,0,0-2.49-5.59,37.36,37.36,0,0,1-1.86-4.35s1.86-6.22,2.49-9.33a25.8,25.8,0,0,0,.62-6.21c0-1.25.62-3.11,0-4.36a6.18,6.18,0,0,1-.62-2.48,2.68,2.68,0,0,0-1.25,2.48c-.62,1.87-1.24,5.6-1.86,7.46,0,1.25-.62,3.73-1.25,4.35a5,5,0,0,1-5,0,3,3,0,0,1,0-2.48c0-1.25,0-1.87-.62-2.49,0-1.24-1.24-3.73-2.49-4.35-.62,0-1.24-1.86-1.24-2.49s-2.49-5.59-1.87-6.83a29.71,29.71,0,0,1,3.11-8.71,7.29,7.29,0,0,0,.62-6.21c-.62-5.6-3.73-4.35-5.59-1.25a14,14,0,0,0-1.86,6.22Zm26.1-17.41A1.93,1.93,0,0,1,578,76.81l5.59,1.87a6.33,6.33,0,0,1,.63,2.48c.62,1.25,3.1,6.22,4.35,8.08.62,1.87,2.48,3.11,3.73,5,1.86,1.86,5,3.73,6.21,5.59,1.87,2.49,1.87,2.49,2.49,4.35a5.27,5.27,0,0,1,0,4.35,26.59,26.59,0,0,0-1.24,6.84c0,1.87,1.86,4.35,1.86,5a63.68,63.68,0,0,0,2.49,6.22v1.24a9,9,0,0,0-1.25,4.36c-.62,1.86.63,5,1.25,6.83,0,1.87,2.48,9.33,2.48,9.95.63.62,1.25,3.11.63,3.11s-.63-.62-1.87-1.25c-1.86-1.24-3.73-4.35-5.59-7.46-1.87-2.48-4.35-8.08-5.6-10.56-.62-1.87-3.11-5-4.35-6.22-.62-1.86-6.22,1.87-7.46,1.87-1.24.62-3.11,2.48-5.59-.63-2.49-3.73,0-5,0-6.83,0-1.25,1.86-5.6,1.24-6.84-.62-1.87-3.11,0-4.35-1.87s-1.25-5.59-1.25-6.83-1.24-3.73-1.24-5c0-1.86.62-2.48,2.49-3.11,1.24-1.24,6.21-3.1,6.21-3.1l1.25-2.49-5.6-13.68Zm3.11,26.11a2.2,2.2,0,0,0,.62,2.49c1.25.62,1.87,1.24,2.49.62,3.73-1.24,1.86-5.59-.62-4.35a2.69,2.69,0,0,0-2.49,1.24Zm3.73,11.19s-.62,2.49.62,3.73c1.25,1.87,3.11,0,3.73-.62a2.72,2.72,0,0,0,.62-3.11c0-1.24,0-1.24-1.24-1.86C583.6,112.24,583,113.49,582.36,115.35Z" transform="translate(-351.43 -49.46)"/><path class="cls-2" d="M751.44,96.7a9.29,9.29,0,0,0-4.35,3.73c-1.86,2.49-3.73,7.46-5,8.71-.62.62-1.87.62-3.11,0-1.87-.63-5-1.25-5,0s1.24,1.24,1.86,3.1,1.87,6.84-1.24,11.19c-3.73,4.35-4.35,6.22-6.84,7.46s-5,.62-6.22,1.25c-1.24,0-1.86-.63-2.48.62s-1.25,6.21,1.24,8.08c1.87,1.86,3.11.62,4.35.62a13.54,13.54,0,0,0,3.73-.62,8.8,8.8,0,0,0,2.49,2.48c1.24,1.25,1.86,1.25,3.11.63s2.48-4.36,3.1-6.22a24.68,24.68,0,0,0,1.25-4.35,28.32,28.32,0,0,1,3.73-3.11c1.24-1.24.62-.62,3.11-1.86a15.75,15.75,0,0,0,3.73-2.49l-1.25,5a2.59,2.59,0,0,0,0,3.73c1.87,1.25,3.73,3.73,5,5s1.86,2.49.62,3.73c-1.25.63-5,0-5.6-.62-.62-1.24-1.86-2.48-2.48-4.35a18.9,18.9,0,0,1-.63-5.59c.63-1.25,0-1.87,0-1.87s-2.48,1.25-2.48,1.87c-.62,1.24-2.49,3.73-3.11,6.21-1.24,2.49-2.49,5.6-1.87,6.84,1.25,1.24,6.22,3.73,8.71,4.35s6.84,1.87,8.7,1.25c2.49,0,3.73,0,4.35.62,1.25.62,1.87.62,1.87,1.24,0,1.24.62,2.49,1.24,5s2.49,3.11,4.35,4.36c1.24.62,8.7,2.48,11.19,3.1,3.11.62,5.6,1.25,6.84.62,1.86,0,4.35-.62,2.49-1.86-1.87-.62-3.73-2.49-5.6-3.73-2.49-1.86-6.22-7.46-8.08-9.95s-3.73-5.59-3.73-5.59a9.16,9.16,0,0,1,1.24-1.87c1.25,0,3.11-4.35,3.73-7.45,1.25-2.49,1.87-5.6,2.49-6.84,0-1.25,0-2.49-.62-3.11,0-1.24-.62-.62-1.87-1.24-.62,0-3.11.62-4.35.62a1.33,1.33,0,0,1-1.24-1.25v-1.86c.62-.62,2.48-1.24,5-1.87,3.11-.62,6.22,0,8.08-1.86s3.11-4.35,4.35-6.22a6.65,6.65,0,0,0,.63-3.1,2.16,2.16,0,0,0-.63-1.25,3.06,3.06,0,0,0-1.86.62c-.62,1.25-4.35,2.49-5,3.11-1.24,1.25-2.48,1.87-3.72,1.25s-1.87-.63-2.49-1.25a57.4,57.4,0,0,1,1.86-6.21c.63-1.87,1.25-3.11,1.25-5,0-2.48-.62-3.11-1.25-3.73s-1.86,0-1.86,0-1.24,1.87-1.87,3.11a63.83,63.83,0,0,0-2.48,6.22c-.62,1.24-1.87,5.59-2.49,6.84,0,.62-1.86.62-3.11.62-1.24.62-3.1,0-5.59,0-3.11.62-5.6,1.24-6.84,2.48-1.24,1.87-5,3.73-5,3.73s-1.87,0-1.87-1.24,1.87-3.11,3.73-4.35,4.35-3.11,5.6-5.6a22.08,22.08,0,0,0,2.48-5.59c0-1.24,0-1.87-1.86-4.35s-2.49-1.87-2.49-1.87Zm3.11,21.76a1.92,1.92,0,0,1,1.24.62c.63,1.24.63,0,1.25,1.24,0,.63,1.24.63,1.24,1.25.62,0,.62.62.62,1.24a8.29,8.29,0,0,1-1.86,3.11c-.62.62-2.49,0-2.49-.62-.62-.62-2.49-.62-3.11-.62-.62-.63,0-1.87.62-2.49.63-1.24,0-1.24,1.25-1.87a8.92,8.92,0,0,0,1.24-1.86Zm8.7,15.54,2.49-1.24c1.86,0,2.49-.62,2.49.62-.63,1.24-.63,2.49-1.25,3.73-.62.62-1.86,2.48-3.11,2.48q-1.86-.93-1.86-1.86c-.62-.62,0-1.86.62-2.49A2.16,2.16,0,0,1,763.25,134Z" transform="translate(-351.43 -49.46)"/><path class="cls-2" d="M875.15,205.49s6.21,7.46,6.83,8.7c1.25,1.24,5,1.86,7.46.62,2.49-1.86,11.81-9.32,13.68-10.57s3.11-3.1,6.84-3.1,6.21.62,6.21,3.1c0,1.87-.62,7.46-1.24,8.08-.62,1.25,0,1.87-.62,2.49,0,.62-5,3.73-7.46,5a39,39,0,0,0-7.46,5.6c-1.24,1.24,0,2.49,1.86,2.49,1.87.62,4.35,0,7.46,1.86a17.32,17.32,0,0,1,5.6,8.7c1.24,2.49.62,4.35-2.49,4.35s-5.59-1.86-7.46-3.73c-1.24-1.86-5-4.35-6.84-5.59-1.86-.62-5-1.86-6.21-1.86-.62,0-1.25,0-3.11,1.86-2.49,1.24-6.84,4.35-12.43,5-5,0-11.81-2.48-15.54-4.35-3.73-2.48-6.84-5.59-6.84-6.84s2.49-3.73,3.11-4.35c1.24-.62,3.1-.62,5.59-.62,3.11.62,4.35,1.24,5.6.62,1.24,0,1.86.62,1.86-.62a12.06,12.06,0,0,0-1.86-6.22,26.56,26.56,0,0,1-3.11-7.46c0-2.48,1.86-3.72,5-4.35,2.49-.62,5.6,1.25,5.6,1.25Zm2.48,35.43a8.83,8.83,0,0,0-2.48,1.24c-.63,0-.63,1.25-.63,3.11-.62,1.24.63,3.73.63,3.73a5.8,5.8,0,0,1,0,3.73v7.46c-.63,1.86,2.48,3.73,3.72,5,1.25,1.87,1.87,3.11,3.11,1.87,1.25-.62,4.35-5.6,5-8.08.62-3.11-1.25-7.46-2.49-9.95C883.23,245.89,877.63,240.92,877.63,240.92Z" transform="translate(-351.43 -49.46)"/><path class="cls-2" d="M956,354.05s7.46-2.48,9.94-2.48c1.87-.62,5.6-3.11,5.6-5.6s-2.49-4.35-4.35-5c-2.49-.62-5.6.62-8.09,2.49s-1.86,3.73-3.73,5c-1.24,1.24-1.24,1.24-1.24,2.49s1.87,3.1,1.87,3.1Zm14.92,3.73s-3.73-.62-5-.62c-1.24-.62-4.35.62-4.35,2.49,0,1.24,0,3.73.62,4.35.62,1.24,1.87,1.24,2.49,1.87s1.86,0,1.86,0a4.69,4.69,0,0,0,1.87-1.87c1.24-1.86,1.24-3.11,1.86-4.35a4.75,4.75,0,0,0,.63-1.87Zm9.32,21.14a55.88,55.88,0,0,1-5.6-1.87c-1.86,0-6.21-3.1-8.7-3.73a16.8,16.8,0,0,0-5-1.86,8.91,8.91,0,0,0,1.24,4.35,4.69,4.69,0,0,0,1.87,1.87,64.75,64.75,0,0,0,1.86,7.46c0,.62,1.87,5,3.73,5.59a7.92,7.92,0,0,0,6.84-3.11c1.86-2.48,2.49-2.48,3.11-4.35a16.41,16.41,0,0,0,.62-4.35ZM933,346.59a41.43,41.43,0,0,0-4.36-1.86c-1.86-.62-2.48-3.11-2.48-5-.62-1.25,1.86-3.73,5-3.73a36.69,36.69,0,0,1,8.7,1.24c2.49,0,4.36,2.49,5.6,5,1.24,3.11,4.35,11.19,5.59,14.3A36.62,36.62,0,0,1,953.47,369c.62,4.35,0,5.6-1.24,7.46-.63,1.87-2.49,3.73-3.73,5-1.25.62-5-.63-5.6-2.49-1.24-1.87-4.35-1.87-6.21-2.49-1.87,0-4.36,1.25-5.6,0-1.86-.62-3.11-1.86-5.59-2.48s-5.6,0-6.22.62,0,2.48,1.24,3.73a4.68,4.68,0,0,1,2.49,4.35c.62,1.86.62,1.86-.62,3.11a34.21,34.21,0,0,1-4.35,5.59c-1.25,1.87-1.87,1.24-2.49,0-1.24-.62-1.86-3.73-2.49-5.59,0-1.87,0-3.73-1.24-5.6-1.24-2.48-3.73-2.48-5.59-2.48a19.62,19.62,0,0,1-8.08-1.25c-2.49-1.24-1.87-3.11-3.11-7.46-.62-4.35-1.25-8.08-.62-9.32.62-1.87,4.35-3.11,6.83-4.35s3.11-3.73,4.35-4.35,3.73-5.6,6.22-6.22c1.87-.62,3.73,1.24,3.73,1.24s-1.24,4.35-.62,6.84c0,3.11,0,6.22,1.24,8.08a68.18,68.18,0,0,0,6.84,6.22,11.29,11.29,0,0,0,8.08,1.86,2,2,0,0,0,.62-3.73L928,361.51,923,359c-1.24,0-1.24-1.87-.62-2.49.62-1.24,3.11-1.86,5.59-1.86a10.16,10.16,0,0,1,6.84,4.35c2.49,1.86,5.6,8.7,6.84,9.94a1.54,1.54,0,0,0,2.49-.62c0-1.86,0-3.11-1.87-6.21a22.27,22.27,0,0,1-3.11-5c-1.24-2.48-2.48-1.86-4.35-5a48.46,48.46,0,0,1-1.86-5.6Zm-26.11,11.82a3.85,3.85,0,0,0-2.49,1.24c-1.24.62-1.24,2.49-1.24,3.73.62,1.86,0,2.49,1.24,4.35s1.87,1.24,2.49,1.24c1.24,0,2.48.62,3.11-1.24,1.24-1.86,1.24-3.73-.63-5A17.16,17.16,0,0,1,906.85,358.41Z" transform="translate(-351.43 -49.46)"/><path class="cls-2" d="M808.89,228.54c76.67,76.66,76.67,201.72,0,278.38s-201.72,76.67-278.38,0-76.67-201.72,0-278.38S732.22,151.87,808.89,228.54Z" transform="translate(-351.43 -49.46)"/><path class="cls-1" d="M626.48,312.19c67.1-67.1,146.78-96.88,177.37-66.29,16.65,16.65,15.4,47.84,0,83.64H789c19.35-35.41,24.54-65.49,10.6-79.42-24.11-24.12-96.62,9-161.39,73.82l-1.09,1.1a50.58,50.58,0,0,0-16.42-7q2.84-3,5.76-5.88Zm127.35,93.73q-7.73,8.77-16.28,17.35c-67.1,67.1-146.78,96.88-177.37,66.29-18.49-18.48-14.92-54.91,5.61-95.64a51.56,51.56,0,0,0,9.48,11.52c-19.57,35.62-24.86,65.91-10.87,79.9,24.12,24.12,96.62-9,161.4-73.82q2.79-2.79,5.49-5.6Z" transform="translate(-351.43 -49.46)"/><path class="cls-3" d="M609.43,323.17a44.54,44.54,0,0,1,23.15,82.6q2.79,2.88,5.65,5.75a425,425,0,0,0,41.33,36.4q-6.73,5.16-13.38,9.78a363.56,363.56,0,0,1-39.71-34.43q-5.64-5.64-10.93-11.4a45.65,45.65,0,0,1-6.11.42,44.53,44.53,0,0,1-40.09-64c-23.62-43.44-28.67-82.92-9.16-102.42,22-22,69.38-12.78,119.22,19.1q-6.72,4.33-13.46,9.21c-44.66-29.94-84.78-40.85-101.54-24.09-14.73,14.73-8.08,47.53,14.1,85.59a44.4,44.4,0,0,1,30.93-12.54Zm88.63,138.06c44.66,30,84.8,40.87,101.56,24.11,13.93-13.93,8.75-44-10.6-79.42h14.83c15.41,35.8,16.65,67,0,83.64-22,22-69.4,12.77-119.25-19.11q6.72-4.33,13.46-9.22Zm-.25-183.49a363.1,363.1,0,0,1,39.74,34.45q8.57,8.56,16.28,17.35H731.29q-2.7-2.81-5.49-5.6a423.14,423.14,0,0,0-41.37-36.42Q691.18,282.36,697.81,277.74Z" transform="translate(-351.43 -49.46)"/><path class="cls-1" d="M538.3,339.08h17.36v33.57a28.27,28.27,0,0,1-1.56,9.43,20.31,20.31,0,0,1-4.87,7.75,19.46,19.46,0,0,1-7,4.67,35.38,35.38,0,0,1-12.17,1.87,75.25,75.25,0,0,1-9-.57,23.36,23.36,0,0,1-8.11-2.28,20.69,20.69,0,0,1-6-4.86,17.8,17.8,0,0,1-3.7-6.49,33.45,33.45,0,0,1-1.62-9.52V339.08h17.37v34.37a9.84,9.84,0,0,0,2.54,7.2,11,11,0,0,0,14.14,0c1.69-1.69,2.55-4.12,2.55-7.24Z" transform="translate(-351.43 -49.46)"/><path class="cls-2" d="M624.18,377.49l9.6,1.18a23.52,23.52,0,0,1-8.4,13.07q-6.17,4.62-15.7,4.63-12,0-19.06-7.39t-7-20.77q0-13.84,7.12-21.48t18.48-7.64q11,0,18,7.48t7,21.06c0,.56,0,1.39-.05,2.48H593.17q.51,9,5.11,13.83a15.21,15.21,0,0,0,11.45,4.81,14.17,14.17,0,0,0,8.72-2.7c2.42-1.78,4.32-4.63,5.73-8.56Zm-30.49-15h30.59c-.4-4.59-1.58-8.07-3.5-10.35a14.25,14.25,0,0,0-11.51-5.38A14.79,14.79,0,0,0,598.51,351Q594.15,355.3,593.69,362.46Z" transform="translate(-351.43 -49.46)"/><path class="cls-1" d="M663.19,377.1l16.3-1a12.25,12.25,0,0,0,2.15,6.05,9,9,0,0,0,7.56,3.36,8.37,8.37,0,0,0,5.65-1.72,5.17,5.17,0,0,0,2-4,5.07,5.07,0,0,0-1.88-3.85c-1.27-1.14-4.18-2.21-8.77-3.21-7.51-1.69-12.87-3.92-16.06-6.73a13.49,13.49,0,0,1-4.84-10.69,14.49,14.49,0,0,1,2.47-8.07,16.55,16.55,0,0,1,7.45-6c3.31-1.44,7.86-2.16,13.62-2.16q10.62,0,16.2,3.94t6.63,12.57l-16.14.94a8.59,8.59,0,0,0-2.7-5.44,8.69,8.69,0,0,0-5.68-1.69,6.81,6.81,0,0,0-4.5,1.26,3.87,3.87,0,0,0-1.51,3.08,3.09,3.09,0,0,0,1.24,2.38c.81.73,2.72,1.4,5.75,2q11.22,2.43,16.07,4.91a16.83,16.83,0,0,1,7.07,6.14,15.58,15.58,0,0,1,2.22,8.2,17.58,17.58,0,0,1-3,9.82,18.37,18.37,0,0,1-8.25,6.82,33.22,33.22,0,0,1-13.33,2.33q-14.13,0-19.57-5.45A21.38,21.38,0,0,1,663.19,377.1Z" transform="translate(-351.43 -49.46)"/><polygon class="cls-1" points="368.9 289.63 422.71 289.63 422.71 303.78 404.65 303.78 404.65 346.91 386.95 346.91 386.95 303.78 368.9 303.78 368.9 289.63"/><path class="cls-1" d="M809.65,339.09a28.72,28.72,0,0,1,27.56,20.84H822.6a15.14,15.14,0,1,0,0,15.6H837.2a28.64,28.64,0,1,1-27.55-36.44Z" transform="translate(-351.43 -49.46)"/></svg>